<svg width="20" height="20" viewBox="0 0 20 20" fill="none" xmlns="http://www.w3.org/2000/svg">
<path d="M15.0998 17.4525C15.2427 17.4525 15.3837 17.5069 15.491 17.6105C16.1766 18.2726 17.1768 18.4931 18.066 18.2171C17.4938 17.025 17.4145 15.6593 17.8579 14.3947C18.4082 12.8214 18.5461 11.2444 17.9198 9.66279C17.3696 8.27339 16.3077 7.11907 14.9639 6.46082C15.0466 6.90157 15.0882 7.35067 15.0882 7.8045C15.0883 9.73086 14.3475 11.5427 13.0026 12.9062C11.6574 14.2699 9.85429 15.0367 7.92537 15.0653C7.567 15.0709 7.21024 15.0499 6.85751 15.0034C7.91762 16.8616 9.91696 18.0718 12.114 18.1044C13.0751 18.1193 13.9979 17.9179 14.8573 17.5075C14.9347 17.4705 15.0176 17.4525 15.0998 17.4525Z" fill="currentColor"/>
<path d="M7.94129 1.66791C4.51943 1.59997 1.67493 4.3682 1.66668 7.78931C1.66465 8.62516 1.82781 9.43555 2.15166 10.1981C2.15636 10.2092 2.16073 10.2204 2.16469 10.2318C2.60813 11.4964 2.52888 12.8621 1.95661 14.0542C2.84584 14.3301 3.84592 14.1097 4.53165 13.4476C4.70058 13.2844 4.95334 13.2433 5.16531 13.3446C6.02459 13.755 6.94752 13.957 7.90858 13.9415C11.3037 13.8911 13.9631 11.1954 13.9631 7.80441C13.9631 4.48746 11.2617 1.73466 7.94129 1.66791ZM4.53536 8.72108C4.04373 8.72108 3.64518 8.32318 3.64518 7.83238C3.64518 7.34158 4.04373 6.94369 4.53536 6.94369C5.02698 6.94369 5.42554 7.34158 5.42554 7.83238C5.4255 8.32318 5.02698 8.72108 4.53536 8.72108ZM7.81489 8.72108C7.32327 8.72108 6.92471 8.32318 6.92471 7.83238C6.92471 7.34158 7.32327 6.94369 7.81489 6.94369C8.30652 6.94369 8.70507 7.34158 8.70507 7.83238C8.70507 8.32318 8.30652 8.72108 7.81489 8.72108ZM11.0945 8.72108C10.6028 8.72108 10.2043 8.32318 10.2043 7.83238C10.2043 7.34158 10.6028 6.94369 11.0945 6.94369C11.5861 6.94369 11.9846 7.34158 11.9846 7.83238C11.9846 8.32318 11.5861 8.72108 11.0945 8.72108Z" fill="currentColor"/>
</svg>
