<svg width="1em" height="1em" viewBox="0 0 24 24" fill="currentColor" xmlns="http://www.w3.org/2000/svg"><path fill-rule="evenodd" clip-rule="evenodd" d="M5.31228 7.95419V19.4942C5.31228 20.1762 5.55864 20.8168 5.989 21.2764C6.41738 21.7373 7.01353 21.9989 7.63745 22H16.3665C16.9906 21.9989 17.5867 21.7373 18.015 21.2764C18.4453 20.8168 18.6916 20.1762 18.6916 19.4942V7.95419C19.5471 7.72366 20.1015 6.8846 19.987 5.99339C19.8724 5.10236 19.1247 4.43583 18.2394 4.43565H15.8773V3.85017C15.8801 3.35782 15.6883 2.88505 15.345 2.53724C15.0016 2.18961 14.5352 1.99604 14.0503 2.00006H9.9536C9.46863 1.99604 9.00224 2.18961 8.65892 2.53724C8.3156 2.88505 8.12385 3.35782 8.12656 3.85017V4.43565H5.76444C4.87922 4.43583 4.1315 5.10236 4.01688 5.99339C3.90244 6.8846 4.45679 7.72366 5.31228 7.95419ZM16.3665 21.0632H7.63745C6.84863 21.0632 6.235 20.3753 6.235 19.4942V7.99536H17.7689V19.4942C17.7689 20.3753 17.1552 21.0632 16.3665 21.0632ZM9.04927 3.85017C9.04621 3.60628 9.14064 3.37154 9.31113 3.19938C9.48143 3.02721 9.71319 2.93262 9.9536 2.93683H14.0503C14.2907 2.93262 14.5224 3.02721 14.6927 3.19938C14.8632 3.37136 14.9577 3.60628 14.9547 3.85017V4.43565H9.04927V3.85017ZM5.76444 5.37242H18.2394C18.6981 5.37242 19.0699 5.74987 19.0699 6.21551C19.0699 6.68114 18.6981 7.05859 18.2394 7.05859H5.76444C5.3058 7.05859 4.93401 6.68114 4.93401 6.21551C4.93401 5.74987 5.3058 5.37242 5.76444 5.37242ZM8.81874 9.71423C8.81874 9.45552 9.02526 9.24585 9.28009 9.24585C9.53492 9.24585 9.74145 9.45552 9.74145 9.71423V18.5667C9.74145 18.8252 9.53492 19.0351 9.28009 19.0351C9.02526 19.0351 8.81874 18.8252 8.81874 18.5667V9.71423ZM14.2627 9.71423C14.2627 9.45552 14.4693 9.24585 14.7241 9.24585C14.9789 9.24585 15.1854 9.45552 15.1854 9.71423V18.5667C15.1854 18.8252 14.9789 19.0351 14.7241 19.0351C14.4693 19.0351 14.2627 18.8252 14.2627 18.5667V9.71423ZM11.5405 9.71423C11.5405 9.45552 11.747 9.24585 12.0018 9.24585C12.2566 9.24585 12.4632 9.45552 12.4632 9.71423V18.5667C12.4632 18.8252 12.2566 19.0351 12.0018 19.0351C11.747 19.0351 11.5405 18.8252 11.5405 18.5667V9.71423Z"></path></svg>