<svg width="1em" height="1em" viewBox="0 0 24 24" fill="none" xmlns="http://www.w3.org/2000/svg">
<path d="M7.94269 1.94129C4.61565 2.60093 1.83753 3.17222 1.76531 3.20322C1.69308 3.23421 1.60374 3.32279 1.5653 3.39796C1.4973 3.53073 1.49285 4.1906 1.50574 12.1165L1.51841 20.6979L1.64597 20.8262C1.77353 20.959 1.83309 20.9724 7.97669 22.1855L14.1796 23.4167L14.3201 23.3369C14.401 23.2927 14.4861 23.2085 14.5116 23.1509C14.5414 23.0758 14.5583 22.6372 14.5583 21.8712V20.7023L18.3576 20.6891L22.1569 20.6759L22.3653 20.5607C22.5142 20.4809 22.6164 20.3879 22.7058 20.233L22.8333 20.0204V12.0635V4.10664L22.7058 3.89408C22.6164 3.73912 22.5142 3.64614 22.3653 3.56634L22.1569 3.45116L18.3576 3.43798L14.5625 3.42456L14.5499 2.21144L14.5372 0.99369L14.4265 0.878508C14.3543 0.807734 14.2563 0.75893 14.1501 0.750141C14.0521 0.741352 11.5633 1.21527 7.94269 1.94129ZM13.7074 12.0635C13.7074 19.6175 13.6947 22.3805 13.6607 22.3805C13.5798 22.3805 2.42045 20.1622 2.382 20.14C2.36511 20.1266 2.348 16.4914 2.348 12.0591C2.348 5.32878 2.35644 4.00025 2.40756 3.97827C2.48845 3.94728 13.4989 1.75556 13.6138 1.75117L13.7074 1.74678V12.0635ZM21.9611 12.0635V19.7681H18.2598H14.5583V18.6389V17.5097H15.4306H16.3028V17.0448V16.5799H15.4306H14.5583V15.2294V13.8789H15.4306H16.3028V13.414V12.9491H15.4306H14.5583V11.82V10.6908H15.4306H16.3028V10.2481V9.80519H15.4306H14.5583V8.67603V7.54687H15.4306H16.3028V7.08197V6.61708H15.4306H14.5583V5.48791V4.35875H18.2598H21.9611V12.0635Z" fill="currentColor" stroke="currentColor" stroke-width="0.3"/>
<path d="M4.49847 8.01937C4.55768 8.12607 5.11772 9.0608 5.73221 10.0932C6.35145 11.1302 6.87035 12.0068 6.87938 12.038C6.89294 12.0647 6.28748 13.0348 5.53174 14.1875C4.78051 15.3401 4.16602 16.2969 4.16602 16.3104C4.16602 16.3236 4.68515 16.3327 5.32247 16.3327H6.47416L7.22539 14.9621C7.63965 14.2099 8.02204 13.4534 8.08126 13.2844L8.19065 12.9729L8.26793 13.231C8.30884 13.3688 8.69123 14.1255 9.11024 14.9086L9.87955 16.3327H11.036C11.9375 16.3327 12.1832 16.3195 12.1651 16.2748C12.1561 16.2481 11.5596 15.2824 10.8403 14.1387C10.1254 12.995 9.5383 12.047 9.5383 12.0382C9.5383 12.0203 10.9223 9.77307 11.8738 8.24207L12.1332 7.8327L11.0315 7.84154L9.92972 7.85479L9.25578 9.0787C8.88694 9.75075 8.51834 10.476 8.44082 10.6897C8.35878 10.9077 8.29053 11.0814 8.28601 11.0814C8.28149 11.0814 8.22228 10.9345 8.15854 10.7564C8.09029 10.5739 7.75332 9.84839 7.40731 9.141L6.77903 7.85479L5.58168 7.84154L4.38432 7.8327L4.49847 8.01937Z" fill="currentColor" stroke="currentColor" stroke-width="0.3"/>
<path d="M17.5 7.12499V7.83368L18.835 7.82028L20.1667 7.80018V7.12535V6.45051L18.835 6.43041L17.5 6.41701V7.12499Z" fill="currentColor" stroke="currentColor" stroke-width="0.3"/>
<path d="M17.5 9.95854V10.6667H18.8333H20.1667V9.95854V9.25002H18.8333H17.5V9.95854Z" fill="currentColor" stroke="currentColor" stroke-width="0.3"/>
<path d="M17.5 13.5003V14.2087H18.8317H20.1667L20.157 13.5137L20.1473 12.8255L18.8253 12.8054L17.5 12.792V13.5003Z" fill="currentColor" stroke="currentColor" stroke-width="0.3"/>
<path d="M17.5 17.0405V17.7492L18.835 17.7358L20.1667 17.7157V17.0409V16.366L18.835 16.3459L17.5 16.3325V17.0405Z" fill="currentColor" stroke="currentColor" stroke-width="0.3"/>
</svg>