<svg width="16" height="16" viewBox="0 0 16 16" fill="none"><path d="M8 4.3335C8 3.22893 7.1046 2.3335 6 2.3335C4.89543 2.3335 4 3.22893 4 4.3335C4 5.43806 4.89543 6.3335 6 6.3335C7.1046 6.3335 8 5.43806 8 4.3335Z" stroke="#929292" stroke-width="1.2" stroke-linecap="round" stroke-linejoin="round"></path><path d="M8 11.6665C8 12.7711 8.8954 13.6665 10 13.6665C11.1046 13.6665 12 12.7711 12 11.6665C12 10.5619 11.1046 9.6665 10 9.6665C8.8954 9.6665 8 10.5619 8 11.6665Z" stroke="#929292" stroke-width="1.2" stroke-linecap="round" stroke-linejoin="round"></path><path d="M8 4.3335H14.6667" stroke="#929292" stroke-width="1.2" stroke-linecap="round" stroke-linejoin="round"></path><path d="M8.00001 11.6665H1.33334" stroke="#929292" stroke-width="1.2" stroke-linecap="round" stroke-linejoin="round"></path><path d="M1.33334 4.3335H4.00001" stroke="#929292" stroke-width="1.2" stroke-linecap="round" stroke-linejoin="round"></path><path d="M14.6667 11.6665H12" stroke="#929292" stroke-width="1.2" stroke-linecap="round" stroke-linejoin="round"></path></svg>