<svg width="10" height="10" viewBox="0 0 10 10" fill="none"><g clip-path="url(#clip0_1644_1011)"><path d="M3.93885 4.57256C3.5487 4.19968 3.0315 3.98381 2.47749 3.96144C2.47487 3.92895 2.47292 3.88417 2.47292 3.8229C2.47292 3.57184 2.67634 2.80474 2.80458 2.38019L2.9358 1.9458H1.34336L1.23669 2.10711C1.19438 2.1711 0.200195 3.70092 0.200195 6.00715C0.200195 7.13628 1.17896 8.05489 2.38201 8.05489C3.58507 8.05489 4.56383 7.13628 4.56383 6.00715C4.56383 5.46721 4.34187 4.95774 3.93885 4.57256ZM2.38201 7.37231C1.57998 7.37231 0.927468 6.7599 0.927468 6.00715C0.927468 4.31231 1.52449 3.05783 1.76041 2.62838H1.98094C1.87645 3.01377 1.74565 3.55056 1.74565 3.8229C1.74565 4.039 1.76274 4.21261 1.84621 4.35753C1.92056 4.4866 2.07605 4.64034 2.395 4.64197L2.41087 4.64235C3.197 4.65665 3.83656 5.26889 3.83656 6.00715C3.83656 6.7599 3.18405 7.37231 2.38201 7.37231Z" fill="black"></path><path d="M9.17518 4.57256C8.78503 4.19968 8.26783 3.98381 7.71381 3.96144C7.7112 3.92895 7.70925 3.88417 7.70925 3.8229C7.70925 3.57184 7.91267 2.80474 8.04091 2.38019L8.17212 1.9458H6.57969L6.47301 2.10711C6.43071 2.1711 5.43652 3.70092 5.43652 6.00715C5.43652 7.13628 6.41529 8.05489 7.61834 8.05489C8.8214 8.05489 9.80016 7.13628 9.80016 6.00715C9.80016 5.46721 9.5782 4.95774 9.17518 4.57256ZM7.61834 7.37231C6.81631 7.37231 6.1638 6.7599 6.1638 6.00715C6.1638 4.31231 6.76081 3.05783 6.99674 2.62838H7.21727C7.11278 3.01377 6.98198 3.55056 6.98198 3.8229C6.98198 4.039 6.99907 4.21261 7.08254 4.35753C7.15689 4.4866 7.31238 4.64034 7.63132 4.64197L7.6472 4.64235C8.43332 4.65665 9.07289 5.26889 9.07289 6.00715C9.07289 6.7599 8.42038 7.37231 7.61834 7.37231Z" fill="black"></path></g><defs><clipPath id="clip0_1644_1011"><rect width="9.6" height="9.6" fill="white" transform="translate(0.200195 0.200195)"></rect></clipPath></defs></svg>