<svg width="24" height="24" viewBox="0 0 24 24" fill="none" xmlns="http://www.w3.org/2000/svg">
<g id="icon">
<path id="Vector" d="M6.10044 4.79958C6.10044 4.19208 6.59291 3.69961 7.20041 3.69961H22.8C23.4075 3.69961 23.9 4.19208 23.9 4.79958C23.9 5.40707 23.4075 5.89955 22.8 5.89955H7.20041C6.59291 5.89955 6.10044 5.40707 6.10044 4.79958ZM0.1 11.9994C0.1 11.3919 0.592473 10.8994 1.19997 10.8994C1.80746 10.8994 2.29994 11.3919 2.29994 11.9994C2.29994 12.6069 1.80746 13.0994 1.19997 13.0994C0.592473 13.0994 0.1 12.6069 0.1 11.9994ZM0.1 4.79958C0.1 4.19208 0.592473 3.69961 1.19997 3.69961C1.80746 3.69961 2.29994 4.19208 2.29994 4.79958C2.29994 5.40707 1.80746 5.89955 1.19997 5.89955C0.592473 5.89955 0.1 5.40707 0.1 4.79958ZM0.1 19.1992C0.1 18.5917 0.592472 18.0992 1.19997 18.0992C1.80746 18.0992 2.29994 18.5917 2.29994 19.1992C2.29994 19.8067 1.80746 20.2992 1.19997 20.2992C0.592472 20.2992 0.1 19.8067 0.1 19.1992ZM6.09985 11.9994C6.09985 11.3919 6.59233 10.8994 7.19982 10.8994H22.7994C23.4069 10.8994 23.8994 11.3919 23.8994 11.9994C23.8994 12.6069 23.4069 13.0994 22.7994 13.0994H7.19982C6.59233 13.0994 6.09985 12.6069 6.09985 11.9994ZM6.09985 19.1992C6.09985 18.5917 6.59233 18.0992 7.19982 18.0992H22.7994C23.4069 18.0992 23.8994 18.5917 23.8994 19.1992C23.8994 19.8067 23.4069 20.2992 22.7994 20.2992H7.19982C6.59233 20.2992 6.09985 19.8067 6.09985 19.1992Z" fill="currentColor" stroke="white" stroke-width="0.2"/>
</g>
</svg>