<svg width="1em" height="1em" viewBox="0 0 24 24" fill="none" xmlns="http://www.w3.org/2000/svg">
<path fill-rule="evenodd" clip-rule="evenodd" d="M1.00195 10.3357C1.00195 5.29872 5.10068 1.19995 10.1376 1.19995C15.1745 1.19995 19.2732 5.29876 19.2732 10.3357C19.2732 12.5087 18.5081 14.5038 17.2364 16.0746L17.1035 16.2388L22.3011 21.5183L22.3024 21.5196C22.5958 21.813 22.5958 22.2868 22.3024 22.5801C22.1561 22.7265 21.9644 22.7999 21.7721 22.7999C21.5801 22.7999 21.3881 22.7261 21.2419 22.5801L16.0432 17.2996L15.8765 17.4346C14.3056 18.7063 12.3106 19.4714 10.1376 19.4714C5.10072 19.4714 1.00195 15.3726 1.00195 10.3357ZM10.1376 2.70003C5.92665 2.70003 2.50206 6.12466 2.50206 10.3357C2.50206 14.5467 5.92665 17.9713 10.1376 17.9713C14.3485 17.9713 17.7732 14.5467 17.7732 10.3357C17.7732 6.12466 14.3486 2.70003 10.1376 2.70003Z" fill="currentColor" stroke="currentColor" stroke-width="0.2"/>
</svg>
