<svg width="1em" height="1em" viewBox="0 0 20 20" fill="none" xmlns="http://www.w3.org/2000/svg">
<path fill-rule="evenodd" clip-rule="evenodd" d="M16.4596 5C16.4596 4.655 16.1796 4.375 15.8346 4.375H4.16797C3.82297 4.375 3.54297 4.655 3.54297 5V16.25C3.54297 16.9683 3.82797 17.6575 4.3363 18.165C4.8438 18.6733 5.53297 18.9583 6.2513 18.9583H13.7513C14.4696 18.9583 15.1588 18.6733 15.6663 18.165C16.1746 17.6575 16.4596 16.9683 16.4596 16.25C16.4596 12.5 16.4596 5 16.4596 5ZM15.2096 5.625V16.25C15.2096 16.6367 15.0563 17.0075 14.7821 17.2808C14.5088 17.555 14.138 17.7083 13.7513 17.7083C11.633 17.7083 8.36964 17.7083 6.2513 17.7083C5.86464 17.7083 5.4938 17.555 5.22047 17.2808C4.9463 17.0075 4.79297 16.6367 4.79297 16.25V5.625H15.2096Z" fill="currentColor"/>
<path fill-rule="evenodd" clip-rule="evenodd" d="M13.75 5.62533C14.095 5.62533 14.375 5.34532 14.375 5.00033C14.375 5.00033 14.375 4.16699 14.375 3.33366C14.375 2.72616 14.1333 2.14283 13.7042 1.71283C13.2742 1.28366 12.6908 1.04199 12.0833 1.04199C10.8433 1.04199 9.15667 1.04199 7.91667 1.04199C7.30917 1.04199 6.72583 1.28366 6.29583 1.71283C5.86667 2.14283 5.625 2.72616 5.625 3.33366V5.00033C5.625 5.34532 5.905 5.62533 6.25 5.62533H13.75ZM13.125 4.37533H6.875V3.33366C6.875 3.05699 6.985 2.79283 7.18 2.59699C7.37583 2.40199 7.64 2.29199 7.91667 2.29199H12.0833C12.36 2.29199 12.6242 2.40199 12.82 2.59699C13.015 2.79283 13.125 3.05699 13.125 3.33366V4.37533Z" fill="currentColor"/>
<path fill-rule="evenodd" clip-rule="evenodd" d="M16.6673 4.375H3.33398C2.98898 4.375 2.70898 4.655 2.70898 5C2.70898 5.345 2.98898 5.625 3.33398 5.625H16.6673C17.0123 5.625 17.2923 5.345 17.2923 5C17.2923 4.655 17.0123 4.375 16.6673 4.375Z" fill="currentColor"/>
<path fill-rule="evenodd" clip-rule="evenodd" d="M7.29297 8.75V14.5833C7.29297 14.9283 7.57297 15.2083 7.91797 15.2083C8.26297 15.2083 8.54297 14.9283 8.54297 14.5833V8.75C8.54297 8.405 8.26297 8.125 7.91797 8.125C7.57297 8.125 7.29297 8.405 7.29297 8.75Z" fill="currentColor"/>
<path fill-rule="evenodd" clip-rule="evenodd" d="M11.459 8.75V14.5833C11.459 14.9283 11.739 15.2083 12.084 15.2083C12.429 15.2083 12.709 14.9283 12.709 14.5833V8.75C12.709 8.405 12.429 8.125 12.084 8.125C11.739 8.125 11.459 8.405 11.459 8.75Z" fill="currentColor"/>
</svg>
